<svg width="20" height="15" viewBox="0 0 20 15" fill="none" xmlns="http://www.w3.org/2000/svg">
<path d="M5 12V11C5 10.057 5 9.586 4.707 9.293C4.414 9 3.943 9 3 9C2.057 9 1.586 9 1.293 9.293C1 9.586 1 10.057 1 11V12C1 12.943 1 13.414 1.293 13.707C1.586 14 2.057 14 3 14C3.943 14 4.414 14 4.707 13.707C5 13.414 5 12.943 5 12ZM12 12V7C12 6.057 12 5.586 11.707 5.293C11.414 5 10.943 5 10 5C9.057 5 8.586 5 8.293 5.293C8 5.586 8 6.057 8 7V12C8 12.943 8 13.414 8.293 13.707C8.586 14 9.057 14 10 14C10.943 14 11.414 14 11.707 13.707C12 13.414 12 12.943 12 12ZM19 12V3C19 2.057 19 1.586 18.707 1.293C18.414 1 17.943 1 17 1C16.057 1 15.586 1 15.293 1.293C15 1.586 15 2.057 15 3V12C15 12.943 15 13.414 15.293 13.707C15.586 14 16.057 14 17 14C17.943 14 18.414 14 18.707 13.707C19 13.414 19 12.943 19 12Z" stroke="black" stroke-width="1.5" stroke-linecap="round" stroke-linejoin="round"/>
</svg>
