<svg width="21" height="21" viewBox="0 0 21 21" fill="none" xmlns="http://www.w3.org/2000/svg">
<path d="M18.9998 14.328C16.4988 20.256 8.36382 21.984 3.70082 17.364C-0.870181 12.834 0.544819 4.63 6.55682 2" stroke="black" stroke-width="1.5" stroke-linecap="round"/>
<path d="M16.183 11.0004C18.071 11.0004 19.015 11.0004 19.624 10.1554C19.647 10.1234 19.684 10.0674 19.705 10.0344C20.253 9.14744 19.971 8.46644 19.406 7.10444C18.8944 5.86917 18.1445 4.74678 17.1991 3.80137C16.2537 2.85595 15.1313 2.10604 13.896 1.59444C12.534 1.02944 11.853 0.747438 10.966 1.29444C10.933 1.31544 10.876 1.35444 10.845 1.37644C10 1.98644 10 2.92944 10 4.81644V6.92744C10 8.84744 10 9.80744 10.596 10.4044C11.193 11.0004 12.153 11.0004 14.072 11.0004H16.183Z" stroke="black" stroke-width="1.5"/>
</svg>
