<svg width="20" height="21" viewBox="0 0 20 21" fill="none" xmlns="http://www.w3.org/2000/svg">
<path d="M1 10.49V13C1 16.3 1 17.95 2.025 18.975C3.05 20 4.7 20 8 20H12C15.3 20 16.95 20 17.975 18.975C19 17.95 19 16.3 19 13V10.49C19 8.808 19 7.968 18.644 7.24C18.288 6.512 17.624 5.996 16.298 4.964L14.298 3.409C12.233 1.803 11.2 1 10 1C8.8 1 7.767 1.803 5.702 3.409L3.702 4.964C2.375 5.996 1.712 6.512 1.356 7.24C1 7.968 1 8.808 1 10.49Z" stroke="black" stroke-width="1.5" stroke-linecap="round" stroke-linejoin="round"/>
<path d="M13 15.5C12.2 16.122 11.15 16.5 10 16.5C8.85 16.5 7.8 16.122 7 15.5" stroke="black" stroke-width="1.5" stroke-linecap="round" stroke-linejoin="round"/>
</svg>
