<svg width="18" height="19" viewBox="0 0 18 19" fill="none" xmlns="http://www.w3.org/2000/svg">
<path d="M13 14L17 18M15 9C15 10.3845 14.5895 11.7378 13.8203 12.889C13.0511 14.0401 11.9579 14.9373 10.6788 15.4672C9.3997 15.997 7.99224 16.1356 6.63437 15.8655C5.2765 15.5954 4.02922 14.9287 3.05026 13.9497C2.07129 12.9708 1.4046 11.7235 1.13451 10.3656C0.86441 9.00777 1.00303 7.6003 1.53285 6.32122C2.06266 5.04213 2.95987 3.94888 4.11101 3.17971C5.26216 2.41054 6.61553 2 8 2" stroke="black" stroke-width="1.5" stroke-linecap="round" stroke-linejoin="round"/>
<path d="M12.5 1L12.758 1.697C13.096 2.611 13.265 3.068 13.598 3.401C13.932 3.735 14.389 3.904 15.303 4.242L16 4.5L15.303 4.758C14.389 5.096 13.932 5.265 13.599 5.598C13.265 5.932 13.096 6.389 12.758 7.303L12.5 8L12.242 7.303C11.904 6.389 11.735 5.932 11.402 5.599C11.068 5.265 10.611 5.096 9.697 4.758L9 4.5L9.697 4.242C10.611 3.904 11.068 3.735 11.401 3.402C11.735 3.068 11.904 2.611 12.242 1.697L12.5 1Z" stroke="black" stroke-width="1.5" stroke-linecap="round" stroke-linejoin="round"/>
</svg>
