<svg width="16" height="20" viewBox="0 0 16 20" fill="none" xmlns="http://www.w3.org/2000/svg">
<path d="M12 5C12 6.06087 11.5786 7.07828 10.8284 7.82843C10.0783 8.57857 9.06087 9 8 9C6.93913 9 5.92172 8.57857 5.17157 7.82843C4.42143 7.07828 4 6.06087 4 5C4 3.93913 4.42143 2.92172 5.17157 2.17157C5.92172 1.42143 6.93913 1 8 1C9.06087 1 10.0783 1.42143 10.8284 2.17157C11.5786 2.92172 12 3.93913 12 5Z" stroke="black" stroke-width="1.5"/>
<path d="M10 12H6C4.67392 12 3.40215 12.5268 2.46447 13.4645C1.52678 14.4021 1 15.6739 1 17C1 17.5304 1.21071 18.0391 1.58579 18.4142C1.96086 18.7893 2.46957 19 3 19H13C13.5304 19 14.0391 18.7893 14.4142 18.4142C14.7893 18.0391 15 17.5304 15 17C15 15.6739 14.4732 14.4021 13.5355 13.4645C12.5979 12.5268 11.3261 12 10 12Z" stroke="black" stroke-width="1.5" stroke-linejoin="round"/>
</svg>
